<?xml version="1.0" encoding="utf-8" ?><svg xmlns="http://www.w3.org/2000/svg" xmlns:xlink="http://www.w3.org/1999/xlink" width="1024" height="1024" viewBox="0 -247.5 1024 1024"><path fill="white" d="M588.746 234.812C600.186 233.875 612.499 234.127 623.574 236.835C635.588 239.773 645.804 250.736 641.052 263.539C633.426 284.079 604.413 303.054 585.714 313.119C585.632 318.382 585.442 322.306 582.142 326.842C579.214 330.843 574.784 333.479 569.871 334.144C563.648 335.013 558.908 332.717 554.101 329.12C549.292 331.664 544.37 333.989 539.351 336.087C498.765 353.178 401.795 384.152 359.577 366.747C354.646 364.714 349.892 361.557 347.854 356.419C345.719 351.035 346.543 344.273 348.856 339.085C362.435 308.638 427.911 279.336 458.063 267.716C454.838 273.605 454.199 279.389 453.454 285.931C442.848 290.098 432.416 294.697 422.186 299.716C411.75 305.166 401.222 310.597 391.612 317.424C391.323 328.131 391.45 339.308 391.422 350.05C386.982 350.052 382.543 349.971 378.106 349.807C377.705 342.775 378.065 334.92 377.731 327.563C372.473 331.747 364.983 338.374 362.512 344.797C361.896 346.397 361.624 348.143 362.42 349.743C363.683 352.285 367.657 353.812 370.189 354.597C409.177 366.689 511.389 335.206 547.743 315.979C547.604 311.865 548.319 308 550.414 304.419C552.947 300.154 557.101 297.098 561.926 295.95C568.992 294.263 573.724 296.375 579.438 299.922C594.405 290.27 608.423 283.023 620.546 269.099C632.799 255.025 626.227 252.037 611.298 249.556C611.15 256.103 611.099 262.653 611.144 269.202C608.211 272.366 601.496 277.395 597.904 280.192C598.214 270.179 597.974 259.119 597.964 249.029C583.256 248.648 551.59 254.433 536.982 258.589C540.757 254.303 551.74 242.625 556.335 240.34C563.088 236.982 580.817 235.492 588.746 234.812Z"/><path fill="white" d="M409.18 78.2032C426.45 77.4653 448.563 78.0948 466.154 78.1011L569.567 78.0024C582.3 78.0043 591.782 78.2867 601.491 87.9547C604.943 91.5197 609.275 97.7426 609.963 102.754C611.757 115.813 611.068 131.074 611.089 144.213L611.096 228.109C606.715 227.958 602.33 227.903 597.946 227.943L597.987 148.187C598.002 137.097 598.112 125.975 597.939 114.885C597.843 108.786 596.478 102.26 591.992 97.7972C583.628 89.4774 573.282 91.9429 563.194 91.3604C547.919 90.4783 555.885 98.1015 548.334 105.414C547.071 106.651 545.497 107.522 543.778 107.935C539.481 108.968 513.03 108.471 506.375 108.456L466.613 108.507C462.455 108.512 456.482 108.341 452.231 108.52C438.255 109.111 439.799 101.631 434.66 92.3116C433.998 91.1111 413.916 91.5798 411.702 91.7266C388.085 93.2931 391.593 115.987 391.437 132.67L391.233 182.867L391.327 253.191C391.319 263.939 390.601 282.17 391.492 292.123C386.636 295.094 382.64 297.62 377.961 300.905L377.988 168.27L377.989 130.506C377.994 122.606 377.608 113.623 378.73 105.866C380.941 90.5886 393.947 79.3892 409.18 78.2032Z"/><path fill="white" d="M610.939 305.494C611.004 305.924 611.023 306.151 611.027 306.587L611.085 387.451C611.082 397.893 611.141 408.347 611.041 418.786C610.958 427.509 607.558 434.382 601.67 440.53C590.021 452.693 577.715 451.424 562.247 451.43L532.231 451.414L422.244 451.426C407.157 451.413 399.851 451.868 387.713 440.563C375.417 429.111 377.977 408.922 377.993 392.62L377.979 377.604C382.42 378.042 387.08 378.08 391.555 378.192C391.518 390.371 391.394 402.571 391.539 414.747C391.606 420.443 393.82 426.703 397.742 430.887C402.748 436.229 408.444 437.553 415.457 437.568C451.105 437.645 486.787 437.58 522.43 437.593L559.01 437.601C564.134 437.603 574.182 437.899 578.909 437.261C583.655 436.638 588.074 434.503 591.512 431.172C598.506 424.356 597.944 413.595 597.964 404.604C597.98 397.278 597.965 389.951 597.958 382.626L598.068 313.915C601.776 311.24 606.993 308.053 610.939 305.494Z"/><path fill="white" d="M481.599 151.187C483.375 150.809 496.731 150.731 499.248 150.84C533.169 152.305 560.304 166.605 583.341 190.531C580.93 193.546 572.935 200.929 569.725 204.016C550.858 185.119 532.423 174.071 505.426 170.871C502.382 170.523 499.323 170.315 496.26 170.247C464.232 169.512 440.897 182.107 418.43 203.489C413.885 199.703 408.811 194.264 404.798 189.948C428.892 166.645 448.011 155.873 481.599 151.187Z"/><path fill="white" d="M269.191 93.7391C286.698 91.8328 302.443 104.46 304.385 121.963C306.327 139.465 293.732 155.236 276.233 157.213C258.684 159.196 242.858 146.557 240.911 129.004C238.964 111.451 251.634 95.651 269.191 93.7391ZM277.215 151.643C291.546 149.137 301.18 135.551 298.804 121.199C296.427 106.846 282.929 97.0902 268.555 99.3368C253.997 101.612 244.088 115.322 246.495 129.859C248.902 144.396 262.701 154.181 277.215 151.643Z"/><path fill="white" d="M286.563 110.024C286.711 110.164 286.861 110.726 286.944 110.964C285.906 114.153 278.034 129.484 275.392 131.053C270.441 133.992 263.864 137.478 258.726 140.524L258.314 139.944C259.41 135.682 265.37 125.514 267.947 121.515C269.215 119.546 283.895 111.508 286.563 110.024ZM274.752 127.927C276.102 126.779 276.289 124.763 275.172 123.386C274.056 122.01 272.045 121.776 270.643 122.86C269.706 123.584 269.235 124.758 269.412 125.929C269.589 127.1 270.386 128.083 271.495 128.497C272.604 128.912 273.85 128.694 274.752 127.927Z"/><path fill="white" d="M271.724 142.593C272.782 142.836 272.809 142.887 273.65 143.612C274.624 146.141 274.102 147.921 273.25 150.427C272.699 150.335 272.352 150.129 271.836 149.901C270.739 147.499 271.331 145.182 271.724 142.593Z"/><path fill="white" d="M271.363 100.951C273.239 101.473 272.728 101.076 273.827 102.297C274.505 104.223 273.948 106.307 273.603 108.344C272.301 108.394 272.897 108.55 271.773 107.793C270.937 105.934 271.281 103.075 271.363 100.951Z"/><path fill="white" d="M248.819 124.078C251.027 123.998 253.976 123.351 254.973 125.488L254.386 126.697C252.004 126.961 250.125 127.673 248.538 125.769L248.819 124.078Z"/><path fill="white" d="M290.838 123.913C293 123.991 295.88 123.58 296.814 125.685L296.193 127.027C293.824 126.994 291.633 127.456 290.318 125.382L290.838 123.913Z"/><path fill="white" d="M727.803 374.066C744.364 371.556 759.815 382.974 762.277 399.542C764.74 416.111 753.277 431.528 736.702 433.943C720.194 436.348 704.852 424.943 702.399 408.441C699.947 391.94 711.309 376.566 727.803 374.066ZM736.208 430.539C750.837 428.385 760.96 414.794 758.834 400.161C756.708 385.528 743.135 375.379 728.498 377.478C713.823 379.583 703.642 393.199 705.773 407.87C707.905 422.542 721.54 432.697 736.208 430.539Z"/><path fill="white" d="M743.023 393.41L743.822 393.735C738.895 399.15 739.124 403.157 734.815 408.147C733.842 409.274 731.436 408.982 729.944 408.832C722.551 401.318 737.55 396.459 743.023 393.41Z"/><path fill="white" d="M489.87 186.722C491.433 186.664 492.998 186.639 494.562 186.648C520.82 186.914 540.257 197.133 558.222 215.494C555.809 218.791 548.036 226.282 544.834 229.486C531.903 215.532 518.86 208.357 500.044 206.456C497.931 206.379 495.817 206.355 493.704 206.386C473.34 206.605 457.412 214.438 443.213 228.981C438.72 224.889 434.079 219.899 429.81 215.505C446.86 196.279 465.202 189.431 489.87 186.722Z"/><path fill="white" d="M711.943 292.062C722.492 290.715 740.277 292.342 751.898 292.2C761.046 292.088 755.831 329.093 756.883 335.866C757.133 337.477 753.594 340.025 752.297 340.859C746.714 341.6 717.794 341.656 712.011 340.889C706.234 336.987 707.442 333.806 707.638 327.348C707.956 316.811 707.432 306.168 708.191 295.688C708.302 294.158 710.781 292.769 711.943 292.062ZM749.887 337.826C751.406 337.343 752.039 337.251 753.143 336.043C754.785 332.017 754.888 298.923 752.021 295.74C748.475 294.494 718.157 294.693 713.144 295.075C710.567 297.603 710.52 301.24 710.736 304.606C710.949 307.929 709.64 335.982 712.168 336.589C722.634 339.103 738.795 337.855 749.887 337.826Z"/><path fill="white" d="M723.529 319.274C723.461 316.434 723.046 310.4 724.302 308.009L725.002 308.591C726.35 312.436 726.88 321.616 725.686 325.112L724.358 325.706C722.004 323.203 719.479 316.382 718.009 312.918C718.064 315.37 718.536 323.555 717.529 325.108L716.685 325.083C715.242 323.232 715.717 310.827 715.616 307.16C715.984 307.195 717.658 307.371 717.848 307.517C719.994 309.168 722.61 316.873 723.529 319.274Z"/><path fill="white" d="M743.112 306.853C745.965 307.074 749.291 309.428 748.886 312.45L748.097 312.855C745.265 312.063 747.096 310.647 744.467 309.54C740.974 310.573 740.271 320.999 744.037 322.807C746.007 322.163 745.497 322.228 746.991 320.34L747.019 319.44L747.935 319.104C749.191 320.332 749.125 323.53 747.498 324.434C737.761 329.847 738.318 315.692 739.875 310.246C740.453 308.225 741.363 307.873 743.112 306.853Z"/><path fill="white" d="M729.082 307.496C731.724 307.464 736.093 306.697 737.713 308.672L737.48 309.493C735.731 310.506 735.304 309.622 732.567 310.093L732.076 311.018L731.924 313.068L731.986 313.938C733.864 315.599 734.376 313.751 736.13 315.224L736.074 316.771C734.798 317.839 734.887 317.458 732.695 317.34C730.912 318.598 733.473 323.802 730.77 325.507L729.839 325.174C728.453 323.077 729.138 311.107 729.082 307.496Z"/><path fill="white" d="M732.076 311.018C733.574 311.09 735.886 310.996 736.994 311.786C735.776 312.701 733.527 312.833 731.924 313.068L732.076 311.018Z"/><path fill="white" d="M312.769 140.479C317.355 140.681 329.611 139.969 332.282 143.438C332.157 144.988 332.393 144.412 331.381 145.609C329.15 146.412 326.139 146.05 323.701 145.939C335.878 157.178 344.328 168.043 351.728 182.881C366.398 212.297 370.086 245.844 368.277 278.318C367.924 284.655 367.183 297.06 365.307 302.84L360.159 307.033C361.244 301.088 362.759 291.885 363.041 286.04C354.147 305.911 337.232 319.872 315.098 321.182C317.65 322.935 322.121 325.594 321.62 328.89C316.644 329.405 307.894 322.978 304.288 319.699C308.022 316.289 315.314 308.394 319.911 308.562L320.598 309.338C320.421 311.741 317.706 314.319 316.05 316.007L316.337 316.497C316.607 316.547 317.364 316.679 317.585 316.646C343.142 312.799 360.54 292.229 362.098 267.296C355.815 266.945 349.377 267.266 343.064 267.322L314.25 267.357C302.187 267.341 284.688 267.606 272.227 267.005C271.448 266.967 271.241 265.933 270.947 265.193C271.703 261.393 277.212 262.89 280.525 262.903L299.221 262.91L362.235 262.798C359.068 233.851 342.314 216.936 313.796 211.98C316.158 213.737 319.338 215.651 320.17 218.426C319.942 220.162 320.265 219.807 319.235 220.67C315.476 220.808 307.071 212.19 303.966 209.339C306.377 207.698 308.799 206.073 311.232 204.464C313.324 203.091 318.088 199.826 320.451 200.321C321.796 201.694 321.556 201.08 321.739 202.666C320.689 204.756 317.671 206.319 315.568 207.707C332.101 210.549 345.213 216.776 355.453 230.738C358.539 234.946 360.536 239.213 363.258 243.552C360.481 212.41 351.589 184.808 331.18 160.265C328.445 156.976 323.001 152.109 319.758 149.056C320.343 151.895 322.861 157.548 319.311 159.215C315.845 157.303 313.673 144.419 312.769 140.479Z"/><path fill="white" d="M267.004 381.026C272.28 380.918 278.047 381.028 283.355 381.035L287.936 386.973C302.026 387.717 303.728 384.77 303.184 402.399C303.032 407.333 303.814 417.746 301.47 421.959C298.747 423.934 286.935 423.14 282.926 423.058C277.494 423.028 253.267 423.75 249.813 422.59C247.945 420.47 247.337 415.719 247.553 413.167C247.935 408.674 246.6 390.96 248.985 388.547C252.47 386.574 258.74 387.175 262.95 387.228C264.383 384.698 265.142 383.337 267.004 381.026ZM276.246 418.436C283.716 417.843 289.317 411.347 288.802 403.871C288.288 396.395 281.85 390.728 274.369 391.164C269.46 391.45 265.084 394.352 262.908 398.761C260.732 403.171 261.092 408.41 263.852 412.48C266.611 416.55 271.344 418.825 276.246 418.436Z"/><path fill="white" d="M271.767 395.83C275.027 394.617 278.687 395.255 281.344 397.499C284.002 399.744 285.244 403.245 284.594 406.662C283.945 410.079 281.505 412.881 278.209 413.994C273.221 415.679 267.803 413.047 266.043 408.085C264.283 403.122 266.831 397.665 271.767 395.83Z"/><path fill="white" d="M491.386 261.361C505.149 259.93 517.448 269.974 518.794 283.745C520.141 297.517 510.021 309.753 496.241 311.014C482.582 312.264 470.476 302.252 469.141 288.6C467.806 274.949 477.743 262.781 491.386 261.361Z"/><path fill="white" d="M488.596 222.635C507.145 221.243 520.743 227.296 533.321 240.649C529.234 245.516 524.793 250.074 520.036 254.288C513.011 247.454 509.715 244.325 499.884 242.382C486.381 240.898 477.206 244.517 468.053 254.478C464.691 251.227 457.017 244.081 454.573 240.561C464.559 229.843 474.265 225.071 488.596 222.635Z"/><path fill="white" d="M269.212 188.618C286.708 187.652 297.724 202.708 290.006 217.727C285.791 225.931 283.756 223.164 282.504 234.455L277.549 234.598L262.592 234.555C261.241 221.554 256.925 223.507 253.889 214.047C252.308 209.086 252.774 203.699 255.185 199.084C258.341 193.06 263.069 190.464 269.212 188.618ZM274.106 211.673C276.321 212.199 277.472 211.905 279.743 211.583C280.728 214.911 275.791 226.241 276.474 231.211C277.59 231.751 277.431 231.534 278.906 231.357C281.352 229.119 280.359 226.031 281.534 224.133C285.309 218.03 289.023 216.969 289.302 208.943C289.473 204.478 287.838 200.131 284.767 196.885C281.554 193.458 277.072 191.504 272.374 191.482C271.516 191.476 270.658 191.52 269.805 191.615C260.565 194.643 253.44 202.604 256.43 213.129C257.551 217.074 261.506 220.641 263.329 224.297C264.957 227.179 263.992 231.303 267.819 232.032L268.571 231.626C269.45 227.55 264.118 214.484 265.3 211.702C266.873 211.804 272.996 212.309 274.106 211.673ZM273.961 230.4C274.759 225.544 275.485 219.886 277.19 215.338L277.05 214.752C276.244 214.751 272.04 214.824 271.458 214.741L268.566 215.11C267.852 216.638 270.483 230.722 272.924 232.028L273.8 231.528L273.961 230.4Z"/><path fill="white" d="M729.074 178.499C740.186 179.131 737.417 190.722 737.339 198.999C737.324 204.886 737.386 210.772 737.525 216.657C745.955 224.993 745.292 236.284 733.433 240.516C728.476 240.642 725.024 240.623 721.108 236.918C718.702 234.638 717.329 231.478 717.304 228.164C717.266 222.856 719.586 220.236 722.96 216.775C722.86 205.637 722.917 194.498 723.132 183.361C725.07 180.669 725.971 179.625 729.074 178.499ZM725.463 218.443C722.371 221.393 720.346 223.293 720.304 227.931C720.263 230.446 721.224 232.874 722.974 234.68C725.053 236.804 727.825 237.838 730.773 237.823C731.583 237.821 732.393 237.779 733.199 237.697C742.644 233.501 742.707 224.62 735.015 218.452C734.937 207.916 734.681 197.072 734.912 186.488C735.005 182.215 732.333 181.484 728.573 181.472C726.353 183.687 725.703 185.025 725.55 188.236C725.074 198.255 725.65 208.41 725.463 218.443Z"/><path fill="white" d="M728.514 198.942C729.063 198.96 729.612 198.991 730.16 199.033C730.622 199.073 732.128 199.445 732.166 199.602C733.842 206.29 730.892 214.8 732.928 221.258C733.412 222.792 739.1 224.244 737.48 229.287C736.529 232.248 735.177 233.044 732.744 234.743C727.471 235.808 723.023 232.927 723.256 227.293C723.394 223.946 725.814 222.625 728.196 220.597C728.801 215.611 728.414 204.7 728.514 198.942Z"/><path fill="white" d="M270.698 287.165C272.942 288.116 285.938 301.281 288.942 304.154C284.933 308.598 281.121 312.955 276.454 316.712C279.34 319.096 286.196 326.436 289.177 329.47C282.883 336.126 277.56 340.999 270.762 347.109C271.027 342.158 270.894 336.034 270.921 330.996C270.95 328.573 270.526 325.436 270.266 322.971C267.544 325.747 262.731 331.942 259.368 332.454C257.894 331.726 258.41 332.096 257.418 330.338C257.739 327.666 267.023 319.389 269.307 317.128C265.247 312.822 260.505 308.252 256.298 304.018C257.371 302.643 258.439 301.685 259.697 300.489C263.059 303.302 267.282 307.892 270.432 311.131C270.823 303.004 271.032 295.291 270.698 287.165ZM275.169 311.512L279.101 307.384L282.351 304.234C280.725 302.651 276.767 298.589 275.191 297.34C275.126 302.018 274.992 306.849 275.169 311.512ZM275.11 336.26C276.775 334.874 277.734 334.09 279.155 332.472L282.166 329.364C280.096 327.282 277.332 324.349 275.153 322.558C275.253 327.056 274.872 331.94 275.11 336.26Z"/><path fill="white" d="M673.838 129.081L691.797 128.935C690.325 132.881 688.22 145.719 684.872 147.194C681.396 145.873 683.486 140.262 684.091 137.38C658.662 156.881 643.094 183.815 632.978 213.603C631.779 217.672 630.686 221.772 629.7 225.898L625.326 224.783C633.399 186.746 651.982 158.809 680.938 133.536C678.186 133.59 673.48 134.279 672.138 131.648C672.541 130.264 672.785 130.151 673.838 129.081Z"/><path fill="white" d="M629.367 298.911L629.772 299.326C634.413 331.498 659.23 364.609 683.338 385.074C682.847 382.222 681.147 376.859 684.091 375.518L685.353 376.061C687.981 379.147 689.752 389.014 690.788 393.269L690.187 393.698C685.886 393.757 674.304 394.793 671.547 391.788C671.9 390.199 671.622 390.799 672.967 389.485C675.15 388.606 678.705 388.897 681.171 388.931C678.922 387.447 676.75 385.851 674.663 384.148C654.014 366.983 628.618 328.641 626.187 301.956L629.367 298.911Z"/><path fill="white" d="M639.316 289.482C650.39 306.076 665.586 312.769 684.501 315.743C682.538 313.776 678.329 310.55 679.311 307.756C682.815 306.161 694.638 315.618 694.928 318.852L693.55 319.921C690.689 321.99 681.929 329.376 678.941 327.735C677.009 324.197 681.828 322.072 684.56 320.183C673.21 319.342 663.907 316.787 654.39 310.518C648.941 306.928 638.321 299.02 636.881 292.521C637.458 290.524 637.425 291.033 639.316 289.482Z"/><path fill="white" d="M679.252 196.192C682.833 196.801 692.872 203.538 696.065 205.885C693.419 208.673 683.921 218.158 680.115 217.08C678.734 213.574 682.318 211.309 684.699 209.155C671.794 210.174 661.541 214.726 651.4 222.424C647.72 225.798 644.995 228.507 642.141 232.59C641.005 231.859 639.266 230.442 638.137 229.576C650.335 213.282 665.236 207.37 684.543 204.375C680.732 201.896 677.54 201.043 679.252 196.192Z"/><path fill="white" d="M654.291 261.548C662.786 261.436 731.672 260.672 734.096 262.33C734.766 264.094 734.473 263.928 734.144 266.052C709.813 267.35 683.939 265.285 659.441 266.196C657.827 266.256 655.812 266.28 654.264 265.895C653.57 264.506 654.013 263.087 654.291 261.548Z"/><path fill="white" d="M716.168 113.362C716.976 108.626 718.317 105.683 722.37 102.744C725.566 100.416 729.566 99.4762 733.464 100.138C738.83 101.08 745.429 107.35 745.247 112.116C745.016 118.159 746.316 126.353 746.317 131.973C746.313 133.631 746.143 135.284 745.809 136.908C744.864 141.29 740.734 150.157 736.525 152.23C735.39 149.71 740.868 143.34 741.805 140.367C744.66 131.302 743.961 118.785 741.516 109.645C738.443 100.149 721.808 100.251 719.574 110.572C716.574 119.768 722.639 136.945 708.29 137.581L707.603 137.011L707.787 136.061C716.155 131.092 716.404 129.492 715.884 120.115C715.77 117.272 715.769 116.166 716.168 113.362Z"/><path fill="white" d="M338.695 366.495C341.746 369.021 341.36 370.774 339.132 373.814C334.758 379.784 328.569 384.184 323.431 389.47C325.954 389.406 330.365 388.908 332.204 390.478C332.603 392.107 332.627 391.416 331.944 393.131C330.14 394.73 317.256 394.097 314.157 394.066C312.907 391.61 316.915 378.014 320.111 376.017L321.129 376.904C321.937 379.437 320.678 383.331 320.046 386C326.364 380.573 334.25 373.674 338.695 366.495Z"/><path fill="white" d="M729.142 105.529C730.312 105.466 731.486 105.551 732.635 105.781C742.3 107.69 739.283 118.673 740.56 124.625C742.102 131.808 735.697 154.537 726.551 152.002C726.832 150.399 732.963 144.87 734.414 142.462C738.878 135.055 739.039 120.542 736.951 112.154C735.08 109.24 731.885 107.229 728.34 108.53C722.009 110.853 724.36 121.586 724.097 126.994C723.722 134.663 719.955 140.548 712.346 142.731C711.227 143.061 711.226 142.903 710.353 142.313C710.262 139.044 718.514 138.421 720.58 132.418C724.302 121.606 715.334 110.873 729.142 105.529Z"/><path fill="white" d="M729.589 88.6711L730.687 88.7422C749.323 90.0407 757.789 103.737 756.537 121.105C756.409 122.89 756.182 123.797 754.828 124.904C749.95 123.152 756.585 114.233 752.377 109.792L753.057 108.307C748.224 95.0786 735.357 88.0556 721.904 93.3991C719.482 94.3611 715.029 98.4961 713.044 98.2555L712.243 97.16C713.078 92.718 725.466 89.227 729.589 88.6711Z"/><path fill="white" d="M712.87 120.353C712.927 121.285 712.977 122.216 713.021 123.148C713.18 126.613 713.174 131.408 707.85 131.994C706.848 132.105 706.602 131.716 705.948 131.061C707.335 127.666 713.696 131.07 709.444 120.035L710.309 118.509L709.928 117.73L708.388 118.598L708.162 117.875C708.66 117.552 709.24 117.175 709.904 116.744C710.668 110.194 712.154 103.822 717.476 99.2939C721.022 96.2761 727.37 93.6605 732.355 94.4301C736.21 95.0252 739.493 95.4282 742.15 98.7048L742.033 99.4831C739.153 99.7568 735.373 97.7051 732.263 97.3332C727.92 96.7914 723.543 98.0251 720.123 100.755C714.884 104.892 713.34 110.178 712.582 116.448C712.604 117.335 712.565 119.665 712.87 120.353Z"/><path fill="white" d="M743.547 101.269C751.044 102.313 750.839 115.442 751.269 121.153C751.973 130.523 753.01 139.108 747.431 147.359C747.055 147.161 746.602 146.922 746.073 146.643C745.613 144.498 749.953 134.54 749.732 132.607C748.864 125.013 748.956 116.082 747.244 108.933C746.942 107.671 744.458 104.136 743.671 101.67L743.547 101.269Z"/><path fill="white" d="M732.561 117.104C733.456 117.385 733.451 117.522 734.023 118.256C736.847 133.836 735.074 141.618 721.501 151.129C719.906 150.742 720.396 151.087 719.509 149.947C720.548 146.982 729.04 144.118 731.356 135.657C733.367 128.31 731.354 123.078 732.561 117.104Z"/><path fill="white" d="M729.561 110.762C731.182 110.78 732.195 110.891 733.094 112.247L732.803 113.171C731.814 113.302 731.19 113.391 730.222 113.628C727.21 119.351 731.905 128.973 727.155 137.088C725.684 136.552 726.064 136.938 725.48 135.762C725.768 134.894 726.084 134.002 726.351 133.131C728.393 126.48 723.642 116.072 729.561 110.762Z"/><path fill="white" d="M262.416 236.531C267.031 236.637 278.473 235.813 281.923 237.029C282.765 238.336 282.527 237.794 282.339 239.813C277.884 239.845 267.314 240.489 263.643 239.557C262.296 238.378 262.698 238.741 262.416 236.531Z"/><path fill="white" d="M709.128 100.824L710.642 101.763C711.121 103.538 707.634 109.702 707.437 112C707.064 116.344 707.486 120.797 707.423 125.232C706.748 125.372 706.58 125.26 705.878 125.135C702.38 120.904 706.057 105.344 709.128 100.824Z"/><path fill="white" d="M262.943 241.501C265.447 241.498 280.787 241.213 281.819 241.963L281.777 244.308C278.352 244.661 266.851 245.399 263.663 243.882C263.145 243.636 263.08 242.281 262.943 241.501Z"/><path fill="white" d="M724.604 137.454C725.868 138.557 725.6 138.019 725.822 139.447C724.307 142.981 718.984 146.104 715.543 147.597C714.55 147.038 714.885 147.3 714.264 146.254C714.691 144.984 721.82 140.396 724.604 137.454Z"/><path fill="white" d="M266.734 246.466C269.686 246.351 275.792 245.639 277.826 247.267L277.532 248.942L277.132 249.148C272.721 251.442 269.344 250.603 266.734 246.466Z"/><path fill="white" d="M712.582 116.448C713.984 114.841 713.243 114.175 714.992 112.894L716.168 113.362C715.769 116.166 715.77 117.272 715.884 120.115C714.961 121.593 714.908 125.976 715.075 127.76L714.546 127.95C713.828 125.297 714.075 121.393 713.279 119.834L712.87 120.353C712.565 119.665 712.604 117.335 712.582 116.448Z"/><path fill="white" d="M740.18 208.592C743.706 208.436 746.112 207.481 747.457 211.005C743.802 211.257 741.34 212.337 740.18 208.592Z"/><path fill="white" d="M739.803 203.63C742.395 203.437 746.273 202.411 746.963 205.324C743.496 206.266 741.762 206.97 739.803 203.63Z"/><path fill="white" d="M740.342 188.124C743.438 187.816 746.443 186.725 747.513 189.98C744.372 190.18 741.517 191.259 740.342 188.124Z"/><path fill="white" d="M739.83 193.22C742.86 192.518 745.216 191.91 746.893 194.766C743.57 195.313 741.649 196.168 739.83 193.22Z"/></svg>