<?xml version="1.0" encoding="utf-8" ?><svg xmlns="http://www.w3.org/2000/svg" xmlns:xlink="http://www.w3.org/1999/xlink" width="640" height="640" viewBox="0 0 640 640"><path fill="#107DAC" transform="scale(0.625 0.625)" d="M621.76 376.16L553.12 444.8L552.64 307.2L621.76 376.16ZM552.64 727.84L621.6 658.88L552.96 590.24L552.64 727.84ZM819.2 517.44C819.2 846.4 704.16 921.6 523.04 921.6C341.92 921.6 204.8 846.4 204.8 517.44C204.8 188.48 338.24 102.4 519.36 102.4C700.48 102.4 819.2 188.64 819.2 517.44ZM565.6 517.44L692.64 375.68L492.48 160.8L492.48 443.84L374.4 325.76L331.2 368.8L479.52 517.6L331.2 666.4L374.24 709.44L492.32 591.36L496 863.36L699.84 659.36L565.6 517.44Z"/></svg>