<?xml version="1.0" encoding="utf-8" ?><svg xmlns="http://www.w3.org/2000/svg" xmlns:xlink="http://www.w3.org/1999/xlink" width="512" height="512" viewBox="0 0 512 512"><path fill="#107DAC" d="M251.017 104.108C257.641 103.664 268.427 104.38 274.908 105.273C310.486 110.258 342.637 129.144 364.316 157.791C379.711 178.012 389.09 202.166 391.376 227.479C392.168 236.532 391.982 246.044 391.989 255.157L392.007 271.073C392.014 274.466 392.17 277.975 391.734 281.335C390.601 290.058 377.325 289.98 376.288 281.259C375.667 276.035 376.091 270.475 375.995 265.199C375.719 249.95 376.917 234.45 374.136 219.366C370.752 200.586 364.484 185.913 353.692 170.377C347.199 161.461 340.969 154.531 332.389 147.466C307.837 127.191 276.224 117.523 244.531 120.597C217.042 123.234 191.295 135.242 171.608 154.608C167.58 158.593 164.525 162.197 161.044 166.669C159.33 168.871 157.106 170.88 154.189 171.08C151.971 171.221 149.791 170.456 148.148 168.96C141.668 163.094 149.129 155.494 153.238 150.839C178.908 121.757 212.345 106.05 251.017 104.108Z"/><path fill="#107DAC" d="M252.681 200.104C253.956 200.013 255.235 199.986 256.512 200.023C267.385 200.237 277.057 204.255 284.652 212.07C295.679 223.416 296.027 234.466 295.989 249.195L295.941 265.7C295.916 275.502 295.953 285.26 295.985 295.185C296.016 304.729 284.49 307.059 280.742 299.135C279.615 296.753 280.003 289.195 280.001 286.103L279.993 255.619C280 244.777 281.618 232.973 274.077 224.279C269.987 219.502 264.152 216.563 257.879 216.119C251.428 215.65 245.057 217.78 240.185 222.034C229.586 231.279 232.233 243.296 231.969 255.818C231.659 270.523 232.509 285.458 231.55 300.143C231.502 302.362 230.933 306.271 230.605 308.545C227.739 327.582 220.583 345.718 209.678 361.583C205.281 367.882 200.522 373.639 194.989 378.989C188.09 385.661 177.898 377.085 182.921 369.585C184.906 366.622 188.223 363.618 190.611 360.756C203.805 344.95 212.134 325.684 214.898 305.299C216.108 296.523 216.017 287.797 216.006 278.8L215.97 255.124C215.963 248.149 215.396 238.736 216.732 232.14C220.418 213.938 234.993 202.207 252.681 200.104Z"/><path fill="#107DAC" d="M253.646 136.111C262.278 135.759 274.324 136.995 282.668 139.422C288.003 140.974 302.147 144.87 305.006 149.921C305.982 151.725 306.202 154.307 305.403 156.217C301.612 165.288 293.827 160.421 287.744 157.988C266.529 149.501 242.453 150.112 221.5 159.059C192.779 171.238 172.694 197.765 168.763 228.714C167.879 235.471 167.971 243.563 167.968 250.395L167.966 275.115C167.966 286.686 168.766 300.116 164.198 310.914C163.213 314.901 157.419 325.293 154.695 328.207C151.272 331.87 145.222 340.271 140.247 340.737C138.026 340.935 135.821 340.209 134.152 338.729C132.488 337.278 131.491 335.331 131.36 333.11C131.093 328.589 135.959 325.119 138.955 321.89C140.869 319.86 142.616 317.679 144.179 315.368C147.402 310.587 149.666 305.226 150.846 299.583C152.439 292.32 151.987 279.725 151.984 271.83L151.98 249.521C151.981 242.559 151.899 236.318 152.563 229.359C154.842 206.958 164.357 185.909 179.668 169.398C195.964 151.744 217.876 140.285 241.672 136.971C245.864 136.393 249.425 136.271 253.646 136.111Z"/><path fill="#107DAC" d="M255.302 167.86C261.896 167.665 269.623 168.756 275.883 170.509C294.271 175.802 309.812 188.166 319.103 204.893C323.468 212.702 326.188 220.984 327.457 229.996C328.451 237.052 323.267 241.621 316.376 239.591C311.216 238.071 310.888 230.466 309.694 226.171C308.894 223.29 308.015 220.234 306.656 217.377C300.365 203.915 288.966 193.516 274.985 188.483C259.607 183.082 245.085 184.227 230.453 191.268C223.192 195.012 216.84 200.303 211.846 206.768C206.689 213.394 203.128 221.121 201.441 229.347C199.427 239.11 200.061 249.44 199.996 259.352C199.984 261.172 200.151 263.228 199.903 265.027C199.683 266.709 198.993 268.296 197.912 269.604C193.561 274.779 183.7 271.805 184.016 263.122C184.39 252.798 183.343 241.715 184.345 231.418C185.778 216.691 192.918 201.877 202.904 191.093C213.991 178.915 228.956 170.954 245.251 168.564C248.454 168.109 252.062 167.983 255.302 167.86Z"/><path fill="#107DAC" d="M321.331 163.525C323.961 163.378 325.411 163.42 327.768 165.04C330.524 166.934 333.156 170.194 335.336 172.768C346.764 186.181 354.565 202.298 357.997 219.581C360.506 232.545 359.956 248.298 359.922 261.699C359.883 276.834 360.334 293.358 359.423 308.356C358.63 321.143 356.827 333.846 354.032 346.349C352.744 352.121 352.237 359.469 345.239 360.694C337.31 361.099 334.502 356.279 336.361 349.165C337.166 346.087 337.905 342.712 338.613 339.598C339.262 336.686 339.844 333.761 340.36 330.823C345.233 303.176 343.875 276.276 344.039 248.376C344.081 241.272 344.092 233.657 342.993 226.642C341.604 217.448 338.746 208.537 334.529 200.249C331.68 194.716 328.265 189.492 324.341 184.661C320.885 180.328 313.179 174.966 315.484 168.785C316.466 166.151 318.769 164.477 321.331 163.525Z"/><path fill="#107DAC" d="M138.873 48.0479C142.697 47.9349 146.481 47.5272 149.542 50.3605C151.12 51.8139 152.022 53.8578 152.032 56.0028C152.038 58.1473 151.134 60.1938 149.546 61.6349C146.816 64.1474 142.651 64.1382 139.102 63.9636L63.9675 63.9806C64.3423 81.6321 64.0132 100.59 64.0097 118.341L64.0113 135.555C64.0276 139.659 64.9008 146.26 61.9461 149.386C60.4052 151.005 58.2756 151.934 56.0403 151.961C53.8682 151.982 51.7825 151.112 50.2694 149.554C47.945 147.148 48.0338 144.006 48.0192 140.769L48.0785 81.251L48.0662 64.2302C48.0601 58.6996 46.6348 49.348 54.6277 48.2261C57.6155 47.8068 61.4153 48.0181 64.4927 48.0199L81.7672 48.0382L138.873 48.0479Z"/><path fill="#107DAC" d="M138.873 48.0479C142.697 47.9349 146.481 47.5272 149.542 50.3605C151.12 51.8139 152.022 53.8578 152.032 56.0028C152.038 58.1473 151.134 60.1938 149.546 61.6349C146.816 64.1474 142.651 64.1382 139.102 63.9636C135.358 62.4159 125.536 65.0701 122.772 60.5643C122.208 59.6459 123.993 58.457 124.409 57.6974C125.219 56.2208 124.668 53.8348 125.481 52.3044C126.267 51.211 126.892 51.5393 127.654 49.8188C132.114 47.6499 136.856 49.2556 138.873 48.0479Z"/><path fill="#107DAC" d="M55.4424 360.076C59.1199 359.92 63.1841 362.478 63.6952 366.256C64.1502 369.62 63.984 373.33 63.9636 376.732L63.9338 391.515L63.9897 447.993L116.689 447.992L133.792 447.983C137.613 447.982 145.608 447.396 148.604 449.517C150.381 450.787 151.57 452.722 151.898 454.881C152.558 459.303 149.457 463.224 145.052 463.761C141.131 464.152 134.874 463.971 130.831 463.967L107.343 463.969L75.2846 463.976C69.218 463.987 63.1839 463.989 57.1042 463.933C53.9328 463.904 49.3409 462.464 48.6351 458.884C47.6534 453.905 48.0409 447.874 48.0469 442.722L48.0717 417.57L48.0447 386.311C48.0237 380.488 47.9488 374.667 48.0535 368.845C48.1434 363.842 50.3344 360.848 55.4424 360.076Z"/><path fill="#107DAC" d="M448.052 448.067L448.117 392.757L448.108 376.868C448.083 372.598 447.261 365.933 450.239 362.617C451.639 361.058 453.88 360.076 455.99 360.088C458.149 360.097 460.214 360.973 461.721 362.518C462.873 363.71 463.6 365.06 463.756 366.708C464.158 370.964 463.991 375.526 463.982 379.819L463.985 401.74L463.996 437.688C463.998 443.664 464.027 449.637 463.973 455.614C463.935 459.864 461.153 463.608 456.719 463.841C452.258 464.076 447.751 463.992 443.279 463.991L417.974 463.979L386.201 464.003C382.075 464.018 370.399 464.569 366.895 463.784C365.474 463.595 363.757 462.795 362.696 461.821C361.124 460.356 360.209 458.319 360.159 456.17C359.869 446.747 370.251 448.005 376.427 448.077L423.957 448.048C430.979 448.048 441.265 447.715 448.052 448.067Z"/><path fill="#107DAC" d="M366.895 463.784C365.474 463.595 363.757 462.795 362.696 461.821C361.124 460.356 360.209 458.319 360.159 456.17C359.869 446.747 370.251 448.005 376.427 448.077L376.01 448.37L375.458 448.412L377.957 448.556L378.037 448.715C376.928 448.96 374.375 449.305 373.774 449.872C373.57 451.62 373.653 451.416 371.819 451.973C371.509 452.469 371.308 454.419 371.356 454.399C368.955 455.4 370.639 457.391 368.994 458.935C368.474 459.423 367.74 460.29 367.671 461.05C367.857 461.84 367.979 461.841 368.596 462.368C368.188 463.208 367.726 463.334 366.895 463.784Z"/><path fill="#107DAC" d="M417.933 48.1063L443.61 48.0495C448.525 48.0383 458.063 46.9526 461.704 50.5356C464.924 53.7046 464.016 61.2768 464.006 65.7175L463.987 86.1229L464.011 123.499C464.011 129.819 464.048 136.198 463.971 142.519C463.935 145.484 463.7 147.778 461.357 149.842C459.704 151.286 457.54 152.005 455.352 151.836C451.165 151.52 448.188 148.084 448.109 144.041C447.954 136.033 448.097 127.895 448.098 119.884L448.037 63.9433L406.528 63.9736C398.131 63.9755 389.313 64.1167 380.944 63.9678C376.063 64.0572 366.286 65.0834 362.748 61.8628C361.129 60.3856 360.17 58.3207 360.085 56.1306C360.013 53.9763 360.839 51.889 362.367 50.3681C363.404 49.328 364.731 48.6255 366.174 48.3529C369.06 47.8303 379.653 48.0607 383.257 48.0645L417.933 48.1063Z"/><path fill="#107DAC" d="M380.944 63.9678C376.063 64.0572 366.286 65.0834 362.748 61.8628C361.129 60.3856 360.17 58.3207 360.085 56.1306C360.013 53.9763 360.839 51.889 362.367 50.3681C363.404 49.328 364.731 48.6255 366.174 48.3529C369.06 47.8303 379.653 48.0607 383.257 48.0645L417.933 48.1063C416.636 48.9592 392.495 47.9483 389.113 48.4507C387.766 48.6509 383.464 51.5678 383.148 52.685C383.796 53.8868 383.695 53.2267 383.423 54.3803C382.965 56.3191 380.491 59.6757 381.296 61.5143C381.687 61.8444 384.84 62.9755 385.688 63.3775C383.884 63.3557 382.432 63.084 380.944 63.9678Z"/><path fill="#107DAC" d="M318.48 256.041C326.554 255.572 328.28 260.46 328.049 267.385C327.608 280.589 328.46 294.003 327.491 307.183C324.793 342.129 313.822 375.932 295.484 405.802C293.403 409.21 291.907 411.352 287.938 412.308C283.089 413.076 277.5 407.89 278.674 403.374C279.74 399.272 283.821 393.326 285.96 389.558C289.411 383.503 292.505 377.252 295.226 370.837C303.565 351.172 308.856 330.351 310.919 309.091C312.319 293.983 311.899 278.883 311.99 263.744C312.014 259.69 314.612 256.964 318.48 256.041Z"/><path fill="#107DAC" d="M255.266 232.065C258.502 231.874 262.102 233.677 263.242 236.722C264.437 239.917 264.024 245.262 264.005 248.729L263.962 264.175C263.967 276.552 264.333 291.041 263.428 303.328C261.679 327.063 253.238 351.572 241.02 371.952C239.239 374.923 237.409 376.516 234.05 377.272C232.087 377.266 231.002 377.189 229.242 376.201C227.349 375.15 225.979 373.36 225.458 371.259C224.609 367.768 226.104 365.541 227.774 362.631C229.201 360.145 230.665 357.683 232.006 355.148C235.31 348.851 238.11 342.301 240.378 335.561C243.952 324.849 246.302 313.766 247.383 302.525C248.023 295.593 247.987 287.639 247.994 280.674L247.975 255.301C247.966 250.163 247.885 245.026 248.063 239.892C248.222 235.324 250.909 232.854 255.266 232.065Z"/><path fill="#107DAC" d="M283.281 319.793C284.768 319.783 286.2 320.067 287.542 320.721C289.477 321.663 291.064 323.288 291.682 325.381C293.609 331.903 283.8 357.517 280.913 364.393C279.023 368.897 276.931 373.313 274.643 377.628C270.265 385.926 254.712 412.887 246.246 415.505C239.807 415.653 234.56 410.617 237.634 404.09C238.704 401.817 241.421 399.041 243.022 397.001C254.542 382.324 263.822 365.674 269.967 348.044C271.317 344.109 272.546 340.134 273.654 336.124C275.456 329.583 275.544 321.377 283.281 319.793Z"/><path fill="#107DAC" d="M135.551 183.541C138.016 183.284 139.775 183.364 141.952 184.749C143.679 185.825 144.902 187.55 145.344 189.537C146.116 193.046 143.422 198.506 142.225 202.046C140.574 206.954 139.254 211.967 138.274 217.052C136.996 223.3 136.259 229.647 136.072 236.022C135.522 250.504 136.343 265.311 135.962 279.821C135.865 283.517 133.357 286.988 129.675 287.743C116.922 289.829 120.152 272.049 120.028 264.404C119.618 239.225 119.297 214.445 129.195 190.722C130.748 186.998 131.793 185.181 135.551 183.541Z"/><path fill="#107DAC" d="M192.091 287.856C202.316 288.746 200.274 299.007 198.97 306.178C196.156 321.95 189.397 336.754 179.322 349.211C175.68 353.685 171.606 357.712 167.444 361.697C163.988 365.006 161.89 368.385 156.801 368.908C152.74 368.623 148.992 365.765 148.55 361.638C147.985 356.37 156.617 349.346 160.236 345.709C171.886 333.999 179.742 320.052 182.682 303.738C183.954 296.675 182.712 288.656 192.091 287.856Z"/><path fill="#107DAC" d="M217.135 380.337C223.134 379.522 228.981 383.936 226.956 390.3C225.672 394.335 218.01 401.48 214.189 403.455C212.605 403.912 211.032 403.97 209.462 403.441C207.374 402.746 205.655 401.235 204.699 399.252C203.951 397.682 203.67 395.059 204.39 393.597C206.224 389.866 213.556 381.833 217.135 380.337Z"/><path fill="#107DAC" d="M334.812 367.521C336.929 367.429 338.119 367.332 340.133 368.281C342.103 369.21 343.597 370.918 344.256 372.993C345.368 376.513 343.388 381.35 341.729 384.497C340.402 387.012 338.725 388.265 336.054 388.978C326.581 390.46 324.814 380.495 328.485 374.101C330.544 370.514 330.61 369.202 334.812 367.521Z"/></svg>