<?xml version="1.0" encoding="utf-8" ?><svg xmlns="http://www.w3.org/2000/svg" xmlns:xlink="http://www.w3.org/1999/xlink" width="640" height="640" viewBox="0 0 640 640"><path fill="#107DAC" transform="scale(0.625 0.625)" d="M204.8 404.16C204.8 237.44 342.4 102.4 512 102.4C681.6 102.4 819.2 237.44 819.2 404.16C819.2 595.04 626.88 823.84 546.56 911.04C527.68 931.52 496.16 931.52 477.28 911.04C396.96 823.84 204.64 595.04 204.64 404.16L204.8 404.16ZM512 512C568.48 512 614.4 466.08 614.4 409.6C614.4 353.12 568.48 307.2 512 307.2C455.52 307.2 409.6 353.12 409.6 409.6C409.6 466.08 455.52 512 512 512Z"/></svg>