<?xml version="1.0" encoding="utf-8" ?><svg xmlns="http://www.w3.org/2000/svg" xmlns:xlink="http://www.w3.org/1999/xlink" width="523" height="375" viewBox="0 0 523 375"><path fill="white" transform="scale(0.366246 0.366211)" d="M951.822 430.492C983.064 427.933 1016.69 428.621 1046.94 436.018C1079.74 444.042 1107.64 473.984 1094.67 508.952C1073.84 565.051 994.608 616.875 943.542 644.365C943.318 658.739 942.799 669.457 933.787 681.845C925.791 692.773 913.693 699.972 900.275 701.789C883.281 704.162 870.336 697.891 857.208 688.067C844.075 695.015 830.634 701.365 816.927 707.095C706.089 753.774 441.27 838.371 325.975 790.834C312.508 785.282 299.526 776.659 293.96 762.626C288.129 747.921 290.38 729.453 296.696 715.283C333.78 632.126 512.591 552.097 594.934 520.36C586.127 536.444 584.382 552.241 582.347 570.109C553.383 581.49 524.894 594.051 496.956 607.759C468.456 622.644 439.705 637.477 413.46 656.123C412.671 685.366 413.018 715.893 412.942 745.231C400.816 745.237 388.693 745.015 376.576 744.568C375.481 725.362 376.464 703.908 375.552 683.814C361.193 695.242 340.738 713.342 333.99 730.884C332.308 735.254 331.565 740.023 333.739 744.393C337.188 751.335 348.041 755.506 354.955 757.65C461.429 790.676 740.564 704.689 839.845 652.176C839.465 640.94 841.418 630.384 847.139 620.604C854.057 608.955 865.401 600.608 878.578 597.473C897.875 592.865 910.798 598.634 926.402 608.321C967.276 581.96 1005.56 562.167 1038.67 524.137C1072.13 485.698 1054.18 477.537 1013.41 470.761C1013.01 488.642 1012.87 506.532 1012.99 524.419C1004.98 533.06 986.641 546.795 976.832 554.434C977.678 527.087 977.023 496.88 976.996 469.322C936.829 468.281 850.351 484.081 810.457 495.432C820.767 483.726 850.761 451.831 863.309 445.59C881.751 436.419 930.168 432.35 951.822 430.492Z"/><path fill="white" transform="scale(0.366246 0.366211)" d="M461.438 2.76134C508.601 0.745972 568.99 2.46527 617.03 2.48247L899.445 2.21291C934.218 2.21809 960.113 2.98938 986.628 29.3947C996.055 39.1314 1007.89 56.1275 1009.76 69.8146C1014.66 105.481 1012.78 147.162 1012.84 183.048L1012.86 412.185C1000.89 411.773 988.919 411.622 976.947 411.732L977.058 193.902C977.099 163.612 977.4 133.236 976.927 102.947C976.665 86.2893 972.938 68.4654 960.687 56.2766C937.845 33.5535 909.591 40.2873 882.041 38.6964C840.326 36.2872 862.08 57.1077 841.459 77.0797C838.01 80.4582 833.711 82.837 829.017 83.965C817.282 86.7864 745.046 85.429 726.871 85.388L618.284 85.5273C606.928 85.5409 590.617 85.0739 579.007 85.5628C540.84 87.1769 545.056 66.7475 531.022 41.2943C529.214 38.0155 474.371 39.2956 468.325 39.6965C403.828 43.975 413.408 105.957 412.983 151.521L412.425 288.62L412.682 480.689C412.66 510.044 410.699 559.837 413.133 587.021C399.871 595.135 388.958 602.034 376.18 611.006L376.254 248.752L376.257 145.611C376.27 124.035 375.216 99.5001 378.28 78.3141C384.319 36.5884 419.837 6.00053 461.438 2.76134Z"/><path fill="white" transform="scale(0.366246 0.366211)" d="M1012.43 623.54C1012.61 624.714 1012.66 625.334 1012.67 626.525L1012.83 847.381C1012.82 875.9 1012.98 904.452 1012.71 932.964C1012.48 956.788 1003.2 975.559 987.117 992.351C955.304 1025.57 921.697 1022.1 879.455 1022.12L797.483 1022.08L497.115 1022.11C455.913 1022.07 435.961 1023.32 402.812 992.441C369.233 961.163 376.224 906.023 376.268 861.499L376.229 820.487C388.358 821.683 401.084 821.787 413.305 822.093C413.204 855.356 412.865 888.677 413.261 921.932C413.444 937.489 419.49 954.586 430.201 966.014C443.872 980.604 459.428 984.22 478.58 984.261C575.932 984.471 673.378 984.294 770.717 984.329L870.615 984.351C884.608 984.357 912.048 985.165 924.958 983.422C937.919 981.721 949.987 975.89 959.376 966.792C978.476 948.176 976.941 918.786 976.996 894.229C977.039 874.221 976.999 854.209 976.979 834.203L977.28 646.539C987.406 639.233 1001.65 630.529 1012.43 623.54Z"/><path fill="white" transform="scale(0.366246 0.366211)" d="M659.21 202.095C664.06 201.063 700.534 200.85 707.408 201.147C800.044 205.149 874.148 244.205 937.061 309.552C930.477 317.786 908.643 337.951 899.877 346.382C848.352 294.771 798.007 264.596 724.28 255.856C715.967 254.906 707.613 254.338 699.248 254.152C611.781 252.145 548.055 286.544 486.699 344.943C474.287 334.602 460.43 319.747 449.471 307.96C515.27 244.314 567.483 214.894 659.21 202.095Z"/><path fill="white" transform="scale(0.366246 0.366211)" d="M79.1358 45.1931C126.946 39.9866 169.945 74.4741 175.249 122.278C180.552 170.08 146.156 213.154 98.3671 218.553C50.4418 223.969 7.22192 189.45 1.90472 141.509C-3.41235 93.5679 31.1887 50.4149 79.1358 45.1931ZM101.049 203.341C140.186 196.496 166.496 159.39 160.007 120.192C153.516 80.9908 116.653 54.3456 77.3989 60.4816C37.6418 66.6956 10.5809 104.14 17.1543 143.844C23.7277 183.548 61.4119 210.272 101.049 203.341Z"/><path fill="white" transform="scale(0.366246 0.366211)" d="M126.578 89.6705C126.982 90.0529 127.392 91.5878 127.618 92.2379C124.784 100.948 103.286 142.82 96.0704 147.105C82.5495 155.132 64.5881 164.653 50.5565 172.972L49.4313 171.388C52.4244 159.748 68.7009 131.977 75.7385 121.055C79.2013 115.677 119.292 93.7236 126.578 89.6705ZM94.3226 138.567C98.0093 135.432 98.52 129.926 95.4695 126.165C92.4218 122.407 86.9299 121.768 83.1011 124.728C80.5422 126.706 79.2559 129.912 79.7393 133.11C80.2227 136.309 82.3992 138.993 85.4279 140.124C88.4565 141.258 91.8593 140.662 94.3226 138.567Z"/><path fill="white" transform="scale(0.366246 0.366211)" d="M86.0533 178.623C88.9426 179.287 89.0163 179.426 91.313 181.406C93.973 188.314 92.5474 193.175 90.2207 200.019C88.7159 199.768 87.7682 199.206 86.3591 198.583C83.3633 192.022 84.98 185.694 86.0533 178.623Z"/><path fill="white" transform="scale(0.366246 0.366211)" d="M85.0674 64.8903C90.1907 66.316 88.7951 65.2317 91.7964 68.5665C93.648 73.8268 92.1269 79.5186 91.1847 85.0821C87.629 85.2186 89.2567 85.6447 86.1871 83.5772C83.9041 78.4999 84.8435 70.6913 85.0674 64.8903Z"/><path fill="white" transform="scale(0.366246 0.366211)" d="M23.501 128.055C29.5309 127.836 37.5845 126.069 40.3073 131.906L38.7042 135.208C32.1991 135.929 27.0676 137.874 22.7336 132.673L23.501 128.055Z"/><path fill="white" transform="scale(0.366246 0.366211)" d="M138.253 127.604C144.157 127.817 152.022 126.695 154.573 132.444L152.877 136.109C146.407 136.019 140.424 137.281 136.832 131.616L138.253 127.604Z"/><path fill="white" transform="scale(0.366246 0.366211)" d="M1331.58 810.824C1376.81 803.969 1419 835.153 1425.72 880.404C1432.45 925.657 1401.15 967.765 1355.88 974.36C1310.8 980.929 1268.9 949.779 1262.2 904.709C1255.51 859.641 1286.53 817.652 1331.58 810.824ZM1354.53 965.063C1394.48 959.18 1422.13 922.061 1416.32 882.095C1410.52 842.129 1373.45 814.41 1333.48 820.143C1293.4 825.892 1265.6 863.08 1271.42 903.15C1277.24 943.222 1314.47 970.957 1354.53 965.063Z"/><path fill="white" transform="scale(0.366246 0.366211)" d="M1373.14 863.656L1375.33 864.544C1361.87 879.333 1362.5 890.277 1350.73 903.906C1348.07 906.984 1341.5 906.187 1337.43 905.777C1317.24 885.255 1358.2 871.984 1373.14 863.656Z"/><path fill="white" transform="scale(0.366246 0.366211)" d="M681.797 299.149C686.066 298.99 690.34 298.922 694.611 298.947C766.32 299.673 819.401 327.583 868.463 377.731C861.873 386.736 840.645 407.195 831.901 415.946C796.587 377.835 760.967 358.238 709.582 353.046C703.811 352.836 698.038 352.77 692.268 352.855C636.655 353.453 593.156 374.847 554.38 414.567C542.11 403.391 529.435 389.762 517.777 377.761C564.339 325.251 614.43 306.547 681.797 299.149Z"/><path fill="white" transform="scale(0.366246 0.366211)" d="M1288.27 586.854C1317.07 583.175 1365.64 587.619 1397.38 587.231C1422.36 586.925 1408.12 687.993 1410.99 706.492C1411.68 710.892 1402.01 717.851 1398.47 720.129C1383.22 722.152 1304.24 722.305 1288.45 720.211C1272.67 709.553 1275.97 700.865 1276.51 683.227C1277.38 654.449 1275.95 625.38 1278.02 596.757C1278.32 592.578 1285.09 588.785 1288.27 586.854ZM1391.89 711.845C1396.04 710.526 1397.77 710.275 1400.78 706.975C1405.26 695.979 1405.55 605.593 1397.72 596.899C1388.03 593.496 1305.24 594.04 1291.55 595.083C1284.51 601.988 1284.38 611.921 1284.97 621.114C1285.55 630.19 1281.98 706.809 1288.88 708.466C1317.46 715.333 1361.6 711.924 1391.89 711.845Z"/><path fill="white" transform="scale(0.366246 0.366211)" d="M1319.91 661.176C1319.72 653.419 1318.59 636.939 1322.02 630.409L1323.93 631.998C1327.61 642.5 1329.06 667.572 1325.8 677.12L1322.17 678.743C1315.74 671.906 1308.85 653.277 1304.83 643.816C1304.98 650.513 1306.27 672.868 1303.52 677.109L1301.22 677.041C1297.28 671.986 1298.57 638.105 1298.3 628.09C1299.3 628.185 1303.87 628.666 1304.39 629.065C1310.25 633.574 1317.4 654.618 1319.91 661.176Z"/><path fill="white" transform="scale(0.366246 0.366211)" d="M1373.39 627.251C1381.18 627.855 1390.26 634.284 1389.15 642.538L1387 643.644C1379.27 641.481 1384.27 637.613 1377.09 634.59C1367.55 637.411 1365.63 665.887 1375.91 670.825C1381.29 669.066 1379.9 669.244 1383.98 664.087L1384.06 661.629L1386.56 660.711C1389.99 664.065 1389.81 672.8 1385.36 675.269C1358.77 690.053 1360.29 651.392 1364.55 636.518C1366.12 630.998 1368.61 630.037 1373.39 627.251Z"/><path fill="white" transform="scale(0.366246 0.366211)" d="M1335.07 629.007C1342.29 628.92 1354.22 626.825 1358.64 632.219L1358.01 634.462C1353.23 637.228 1352.06 634.814 1344.59 636.1L1343.25 638.627L1342.83 644.226L1343 646.602C1348.13 651.138 1349.53 646.091 1354.32 650.114L1354.17 654.339C1350.68 657.256 1350.92 656.216 1344.94 655.893C1340.07 659.329 1347.06 673.542 1339.68 678.199L1337.14 677.29C1333.35 671.562 1335.22 638.87 1335.07 629.007Z"/><path fill="white" transform="scale(0.366246 0.366211)" d="M1343.25 638.627C1347.34 638.823 1353.65 638.567 1356.68 640.724C1353.35 643.223 1347.21 643.584 1342.83 644.226L1343.25 638.627Z"/><path fill="white" transform="scale(0.366246 0.366211)" d="M198.145 172.849C210.669 173.401 244.139 171.456 251.434 180.931C251.092 185.164 251.737 183.591 248.973 186.861C242.88 189.054 234.657 188.065 227.999 187.762C261.254 218.458 284.331 248.132 304.54 288.658C344.602 368.999 354.674 460.623 349.734 549.316C348.77 566.624 346.746 600.505 341.623 616.291L327.564 627.743C330.527 611.506 334.665 586.371 335.435 570.407C311.146 624.678 264.952 662.809 204.505 666.387C211.474 671.175 223.685 678.437 222.316 687.439C208.727 688.845 184.831 671.292 174.984 662.336C185.181 653.023 205.095 631.46 217.649 631.919L219.525 634.038C219.042 640.601 211.627 647.642 207.105 652.253L207.889 653.591C208.626 653.728 210.693 654.088 211.297 653.998C281.092 643.491 328.605 587.31 332.859 519.213C315.701 518.254 298.119 519.131 280.879 519.284L202.189 519.38C169.246 519.336 121.457 520.06 87.4269 518.418C85.2995 518.314 84.7342 515.49 83.9313 513.469C85.9959 503.091 101.041 507.179 110.088 507.215L161.146 507.234L333.234 506.928C324.585 427.868 278.83 381.669 200.949 368.133C207.4 372.932 216.084 378.16 218.357 385.739C217.734 390.48 218.616 389.511 215.803 391.868C205.537 392.245 182.584 368.707 174.104 360.92C180.689 356.438 187.303 352 193.947 347.606C199.66 343.856 212.671 334.938 219.124 336.29C222.797 340.04 222.142 338.363 222.641 342.695C219.774 348.403 211.532 352.672 205.789 356.463C250.939 364.225 286.747 381.232 314.712 419.365C323.14 430.858 328.594 442.512 336.027 454.363C328.443 369.308 304.16 293.921 248.424 226.889C240.955 217.906 226.088 204.613 217.231 196.275C218.829 204.029 225.705 219.468 216.011 224.021C206.545 218.799 200.614 183.61 198.145 172.849Z"/><path fill="white" transform="scale(0.366246 0.366211)" d="M73.1632 829.833C87.5717 829.538 103.321 829.839 117.817 829.858L130.327 846.076C168.806 848.108 173.454 840.059 171.969 888.207C171.554 901.683 173.689 930.123 167.288 941.63C159.852 947.024 127.594 944.855 116.645 944.631C101.811 944.549 35.6483 946.521 26.2156 943.353C21.1142 937.563 19.4538 924.587 20.0436 917.617C21.0869 905.345 17.4411 856.965 23.9544 850.375C33.4717 844.986 50.5947 846.627 62.092 846.772C66.0054 839.862 68.0782 836.145 73.1632 829.833ZM98.4026 932.008C118.803 930.388 134.099 912.646 132.692 892.228C131.289 871.809 113.707 856.331 93.2766 857.522C79.8704 858.303 67.9199 866.229 61.9772 878.271C56.0347 890.316 57.0179 904.625 64.5552 915.74C72.09 926.856 85.0155 933.07 98.4026 932.008Z"/><path fill="white" transform="scale(0.366246 0.366211)" d="M86.1707 870.266C95.0736 866.953 105.069 868.695 112.325 874.824C119.584 880.956 122.976 890.518 121.201 899.85C119.428 909.183 112.765 916.836 103.763 919.875C90.1415 924.478 75.3453 917.289 70.5388 903.737C65.7323 890.182 72.6907 875.278 86.1707 870.266Z"/><path fill="white" transform="scale(0.366246 0.366211)" d="M685.937 503.003C723.523 499.095 757.111 526.527 760.787 564.139C764.466 601.753 736.828 635.172 699.196 638.616C661.894 642.03 628.833 614.685 625.188 577.399C621.542 540.115 648.679 506.882 685.937 503.003Z"/><path fill="white" transform="scale(0.366246 0.366211)" d="M678.318 397.234C728.974 393.433 766.11 409.965 800.459 446.434C789.298 459.727 777.17 472.176 764.179 483.685C744.994 465.02 735.993 456.474 709.145 451.168C672.269 447.114 647.213 456.999 622.216 484.204C613.035 475.325 592.078 455.808 585.403 446.194C612.674 416.921 639.181 403.888 678.318 397.234Z"/><path fill="white" transform="scale(0.366246 0.366211)" d="M79.1932 304.327C126.974 301.689 157.058 342.81 135.98 383.83C124.469 406.237 118.912 398.679 115.493 429.517L101.961 429.908L61.1143 429.79C57.4248 394.282 45.638 399.616 37.3469 373.779C33.0293 360.229 34.3019 345.516 40.8862 332.912C49.5051 316.459 62.417 309.369 79.1932 304.327ZM92.5583 367.295C98.6074 368.732 101.751 367.929 107.953 367.049C110.643 376.139 97.16 407.083 99.0252 420.657C102.073 422.132 101.639 421.539 105.667 421.056C112.347 414.944 109.635 406.51 112.844 401.326C123.153 384.657 133.296 381.759 134.058 359.839C134.525 347.644 130.06 335.771 121.673 326.906C112.898 317.546 100.658 312.209 87.8284 312.149C85.4852 312.133 83.142 312.253 80.8126 312.512C55.5787 320.783 36.1207 342.526 44.2862 371.272C47.3476 382.046 58.1486 391.788 63.127 401.774C67.573 409.645 64.9376 420.909 75.3889 422.9L77.4426 421.791C79.8431 410.658 65.2817 374.972 68.5096 367.374C72.8054 367.653 89.527 369.032 92.5583 367.295ZM92.1624 418.442C94.3417 405.18 96.3243 389.726 100.981 377.305L100.598 375.704C98.3971 375.702 86.9163 375.901 85.3268 375.674L77.429 376.682C75.479 380.855 82.6642 419.322 89.3304 422.889L91.7227 421.523L92.1624 418.442Z"/><path fill="white" transform="scale(0.366246 0.366211)" d="M1335.05 276.69C1365.4 278.416 1357.83 310.073 1357.62 332.68C1357.58 348.758 1357.75 364.834 1358.13 380.907C1381.15 403.675 1379.34 434.513 1346.95 446.071C1333.42 446.415 1323.99 446.363 1313.29 436.244C1306.72 430.017 1302.97 421.387 1302.91 412.335C1302.8 397.838 1309.14 390.682 1318.35 381.23C1318.08 350.809 1318.24 320.387 1318.82 289.969C1324.11 282.617 1326.58 279.765 1335.05 276.69ZM1325.19 385.785C1316.74 393.842 1311.21 399.032 1311.1 411.699C1310.99 418.568 1313.61 425.199 1318.39 430.132C1324.07 435.933 1331.64 438.757 1339.69 438.716C1341.9 438.711 1344.11 438.596 1346.31 438.372C1372.11 426.912 1372.28 402.656 1351.27 385.81C1351.06 357.034 1350.36 327.417 1350.99 298.51C1351.25 286.839 1343.95 284.843 1333.68 284.81C1327.62 290.859 1325.84 294.514 1325.43 303.284C1324.13 330.648 1325.7 358.383 1325.19 385.785Z"/><path fill="white" transform="scale(0.366246 0.366211)" d="M1333.52 332.524C1335.02 332.573 1336.52 332.658 1338.02 332.773C1339.28 332.882 1343.39 333.898 1343.49 334.327C1348.07 352.593 1340.01 375.835 1345.57 393.474C1346.9 397.663 1362.43 401.629 1358.01 415.402C1355.41 423.49 1351.72 425.664 1345.07 430.304C1330.67 433.213 1318.52 425.344 1319.16 409.956C1319.54 400.815 1326.15 397.207 1332.65 391.668C1334.3 378.05 1333.25 348.25 1333.52 332.524Z"/><path fill="white" transform="scale(0.366246 0.366211)" d="M83.2513 573.479C89.3795 576.077 124.871 612.033 133.075 619.88C122.126 632.017 111.716 643.917 98.9706 654.178C106.852 660.689 125.576 680.736 133.716 689.023C116.528 707.202 101.991 720.511 83.4261 737.199C84.1498 723.677 83.7866 706.951 83.8603 693.191C83.9396 686.573 82.7816 678.005 82.0715 671.273C74.6379 678.855 61.4939 695.774 52.3098 697.173C48.2844 695.185 49.6935 696.195 46.9844 691.394C47.8611 684.096 73.2151 661.49 79.4526 655.314C68.365 643.554 55.4149 631.072 43.9258 619.508C46.8561 615.753 49.7727 613.136 53.2082 609.87C62.3896 617.553 73.9225 630.089 82.5249 638.935C83.5927 616.739 84.1635 595.673 83.2513 573.479ZM95.4614 639.976L106.199 628.702L115.075 620.098C110.634 615.775 99.8254 604.681 95.5215 601.269C95.3439 614.046 94.978 627.24 95.4614 639.976ZM95.3002 707.568C99.8472 703.782 102.466 701.641 106.347 697.222L114.57 688.734C108.917 683.047 101.368 675.036 95.4177 670.145C95.6907 682.43 94.6503 695.769 95.3002 707.568Z"/><path fill="white" transform="scale(0.366246 0.366211)" d="M1184.2 141.719L1233.25 141.32C1229.23 152.098 1223.48 187.161 1214.34 191.189C1204.84 187.582 1210.55 172.257 1212.2 164.385C1142.76 217.647 1100.24 291.209 1072.62 372.566C1069.34 383.679 1066.36 394.877 1063.66 406.146L1051.72 403.101C1073.77 299.214 1124.52 222.912 1203.59 153.887C1196.08 154.034 1183.23 155.916 1179.56 148.73C1180.66 144.95 1181.33 144.642 1184.2 141.719Z"/><path fill="white" transform="scale(0.366246 0.366211)" d="M1062.76 605.56L1063.86 606.693C1076.54 694.562 1144.31 784.995 1210.15 840.889C1208.81 833.1 1204.16 818.452 1212.2 814.79L1215.65 816.273C1222.83 824.701 1227.66 851.65 1230.49 863.271L1228.85 864.443C1217.11 864.604 1185.48 867.434 1177.95 859.226C1178.91 854.886 1178.15 856.525 1181.82 852.936C1187.79 850.536 1197.49 851.33 1204.23 851.423C1198.09 847.37 1192.16 843.011 1186.46 838.36C1130.06 791.479 1060.71 686.759 1054.07 613.876L1062.76 605.56Z"/><path fill="white" transform="scale(0.366246 0.366211)" d="M1089.93 579.807C1120.17 625.129 1161.67 643.409 1213.32 651.532C1207.96 646.159 1196.47 637.349 1199.15 629.718C1208.72 625.361 1241.01 651.19 1241.8 660.023L1238.04 662.943C1230.22 668.594 1206.3 688.766 1198.14 684.284C1192.86 674.621 1206.02 668.818 1213.48 663.658C1182.49 661.361 1157.08 654.383 1131.09 637.261C1116.21 627.456 1087.21 605.858 1083.28 588.108C1084.85 582.653 1084.76 584.043 1089.93 579.807Z"/><path fill="white" transform="scale(0.366246 0.366211)" d="M1198.99 325.013C1208.77 326.676 1236.18 345.077 1244.9 351.487C1237.68 359.101 1211.74 385.007 1201.35 382.063C1197.57 372.487 1207.36 366.301 1213.86 360.418C1178.62 363.201 1150.62 375.633 1122.93 396.658C1112.88 405.873 1105.43 413.272 1097.64 424.424C1094.54 422.427 1089.79 418.557 1086.71 416.192C1120.02 371.689 1160.71 355.543 1213.44 347.363C1203.03 340.592 1194.31 338.262 1198.99 325.013Z"/><path fill="white" transform="scale(0.366246 0.366211)" d="M1130.82 503.514C1154.02 503.208 1342.14 501.121 1348.76 505.65C1350.59 510.468 1349.79 510.014 1348.9 515.815C1282.45 519.36 1211.79 513.72 1144.89 516.209C1140.48 516.372 1134.98 516.438 1130.75 515.386C1128.85 511.593 1130.06 507.717 1130.82 503.514Z"/><path fill="white" transform="scale(0.366246 0.366211)" d="M1299.8 98.7873C1302.01 85.8523 1305.67 77.8143 1316.74 69.7874C1325.47 63.4291 1336.39 60.8623 1347.04 62.6698C1361.69 65.2426 1379.71 82.3673 1379.22 95.3842C1378.59 111.889 1382.14 134.268 1382.14 149.618C1382.13 154.146 1381.66 158.661 1380.75 163.096C1378.17 175.064 1366.89 199.282 1355.4 204.944C1352.3 198.061 1367.26 180.663 1369.82 172.544C1377.61 147.785 1375.7 113.599 1369.03 88.6354C1360.64 62.6999 1315.21 62.9784 1309.11 91.1672C1300.91 116.283 1317.48 163.197 1278.29 164.934L1276.41 163.378L1276.92 160.783C1299.77 147.212 1300.45 142.842 1299.03 117.231C1298.72 109.466 1298.71 106.446 1299.8 98.7873Z"/><path fill="white" transform="scale(0.366246 0.366211)" d="M268.947 790.146C277.279 797.045 276.225 801.833 270.141 810.136C258.195 826.441 241.294 838.458 227.262 852.895C234.152 852.721 246.198 851.36 251.221 855.648C252.31 860.098 252.376 858.21 250.511 862.894C245.584 867.262 210.399 865.533 201.935 865.448C198.522 858.74 209.467 821.607 218.195 816.152L220.975 818.575C223.182 825.493 219.744 836.129 218.018 843.418C235.272 828.596 256.808 809.753 268.947 790.146Z"/><path fill="white" transform="scale(0.366246 0.366211)" d="M1335.24 77.3937C1338.43 77.2217 1341.64 77.4538 1344.77 78.082C1371.17 83.2959 1362.93 113.293 1366.42 129.549C1370.63 149.167 1353.14 211.245 1328.16 204.321C1328.93 199.943 1345.67 184.842 1349.63 178.265C1361.82 158.035 1362.26 118.397 1356.56 95.488C1351.45 87.5292 1342.73 82.0368 1333.05 85.5901C1315.76 91.9347 1322.18 121.249 1321.46 136.019C1320.43 156.965 1310.15 173.038 1289.37 179C1286.31 179.901 1286.31 179.47 1283.92 177.858C1283.68 168.93 1306.21 167.229 1311.85 150.833C1322.02 121.303 1297.53 91.9893 1335.24 77.3937Z"/><path fill="white" transform="scale(0.366246 0.366211)" d="M1336.46 31.3513L1339.45 31.5455C1390.35 35.092 1413.47 72.4994 1410.05 119.935C1409.7 124.81 1409.08 127.287 1405.38 130.311C1392.06 125.526 1410.18 101.166 1398.69 89.0369L1400.55 84.981C1387.35 48.8515 1352.21 29.6703 1315.47 44.2645C1308.85 46.8919 1296.69 58.1855 1291.27 57.5283L1289.08 54.5363C1291.37 42.4043 1325.2 32.8696 1336.46 31.3513Z"/><path fill="white" transform="scale(0.366246 0.366211)" d="M1290.8 117.881C1290.95 120.427 1291.09 122.969 1291.21 125.515C1291.64 134.979 1291.63 148.075 1277.09 149.675C1274.35 149.978 1273.68 148.916 1271.89 147.127C1275.68 137.854 1293.05 147.152 1281.44 117.013L1283.8 112.845L1282.76 110.717L1278.56 113.088L1277.94 111.113C1279.3 110.231 1280.88 109.201 1282.7 108.024C1284.78 90.1348 1288.84 72.7316 1303.38 60.3644C1313.06 52.1222 1330.4 44.9784 1344.01 47.0804C1354.54 48.7057 1363.5 49.8064 1370.76 58.7555L1370.44 60.8811C1362.57 61.6287 1352.25 56.0251 1343.76 55.0093C1331.9 53.5295 1319.94 56.899 1310.6 64.3549C1296.3 75.654 1292.08 90.0911 1290.01 107.216C1290.07 109.638 1289.96 116.002 1290.8 117.881Z"/><path fill="white" transform="scale(0.366246 0.366211)" d="M1374.57 65.7588C1395.05 68.6102 1394.49 104.468 1395.66 120.066C1397.59 145.658 1400.42 169.105 1385.18 191.64C1384.15 191.099 1382.92 190.447 1381.47 189.685C1380.22 183.826 1392.07 156.629 1391.47 151.349C1389.09 130.609 1389.35 106.216 1384.67 86.6908C1383.85 83.244 1377.06 73.5892 1374.91 66.854L1374.57 65.7588Z"/><path fill="white" transform="scale(0.366246 0.366211)" d="M1344.57 109.007C1347.02 109.775 1347 110.149 1348.56 112.154C1356.28 154.706 1351.44 175.96 1314.37 201.937C1310.01 200.88 1311.35 201.822 1308.93 198.708C1311.77 190.61 1334.96 182.788 1341.28 159.68C1346.77 139.613 1341.28 125.324 1344.57 109.007Z"/><path fill="white" transform="scale(0.366246 0.366211)" d="M1336.38 91.6862C1340.81 91.7353 1343.57 92.0385 1346.03 95.742L1345.23 98.2656C1342.53 98.6234 1340.83 98.8665 1338.18 99.5138C1329.96 115.144 1342.78 141.424 1329.81 163.588C1325.79 162.124 1326.83 163.178 1325.23 159.966C1326.02 157.596 1326.88 155.159 1327.61 152.781C1333.19 134.615 1320.22 106.189 1336.38 91.6862Z"/><path fill="white" transform="scale(0.366246 0.366211)" d="M60.6336 435.187C73.237 435.477 104.484 433.226 113.906 436.547C116.206 440.117 115.556 438.637 115.042 444.151C102.876 444.239 74.0098 445.997 63.9846 443.452C60.3059 440.232 61.4038 441.223 60.6336 435.187Z"/><path fill="white" transform="scale(0.366246 0.366211)" d="M1280.58 64.5434L1284.71 67.108C1286.02 71.9559 1276.5 88.7911 1275.96 95.0674C1274.94 106.932 1276.09 119.094 1275.92 131.207C1274.08 131.589 1273.62 131.283 1271.7 130.942C1262.15 119.386 1272.19 76.8885 1280.58 64.5434Z"/><path fill="white" transform="scale(0.366246 0.366211)" d="M62.0729 448.761C68.9111 448.753 110.804 447.975 113.622 450.023L113.507 456.428C104.154 457.392 72.7454 459.408 64.0391 455.264C62.6245 454.593 62.447 450.892 62.0729 448.761Z"/><path fill="white" transform="scale(0.366246 0.366211)" d="M1322.84 164.587C1326.29 167.6 1325.56 166.131 1326.17 170.031C1322.03 179.683 1307.49 188.212 1298.1 192.29C1295.39 190.763 1296.3 191.479 1294.6 188.622C1295.77 185.154 1315.24 172.623 1322.84 164.587Z"/><path fill="white" transform="scale(0.366246 0.366211)" d="M72.4259 462.322C80.4876 462.008 97.1627 460.063 102.717 464.51L101.915 469.084L100.822 469.647C88.7761 475.912 79.5536 473.621 72.4259 462.322Z"/><path fill="#107DAC" fill-opacity="0.011764706" transform="scale(0.366246 0.366211)" d="M1290.01 107.216C1293.84 102.827 1291.82 101.008 1296.59 97.5091L1299.8 98.7873C1298.71 106.446 1298.72 109.466 1299.03 117.231C1296.51 121.268 1296.36 133.239 1296.82 138.111L1295.37 138.63C1293.41 131.384 1294.09 120.722 1291.91 116.464L1290.8 117.881C1289.96 116.002 1290.07 109.638 1290.01 107.216Z"/><path fill="white" transform="scale(0.366246 0.366211)" d="M1365.38 358.88C1375.01 358.454 1381.58 355.846 1385.25 365.471C1375.27 366.159 1368.55 369.108 1365.38 358.88Z"/><path fill="white" transform="scale(0.366246 0.366211)" d="M1364.35 345.328C1371.43 344.801 1382.02 341.999 1383.9 349.955C1374.44 352.527 1369.7 354.45 1364.35 345.328Z"/><path fill="white" transform="scale(0.366246 0.366211)" d="M1365.82 302.978C1374.28 302.137 1382.48 299.157 1385.41 308.047C1376.83 308.593 1369.03 311.54 1365.82 302.978Z"/><path fill="white" transform="scale(0.366246 0.366211)" d="M1364.42 316.896C1372.7 314.979 1379.13 313.318 1383.71 321.118C1374.64 322.612 1369.39 324.948 1364.42 316.896Z"/></svg>