<?xml version="1.0" encoding="utf-8" ?><svg xmlns="http://www.w3.org/2000/svg" xmlns:xlink="http://www.w3.org/1999/xlink" width="640" height="640" viewBox="0 0 640 640"><path fill="#107DAC" transform="scale(0.625 0.625)" d="M679.84 154.24C692.16 152.16 704.96 155.04 713.76 162.24C848.32 256.16 921.6 380.32 921.6 510.56C921.6 643.52 848.32 767.84 713.76 861.76C706.08 868.16 695.04 871.2 684 870.24C672.8 869.28 662.4 864.48 654.56 856.64L361.12 564.32C352.16 555.52 347.2 543.52 345.76 530.88C345.76 518.4 352.16 506.4 360.96 497.44C369.92 488.64 381.92 483.52 394.4 483.52C407.04 483.52 419.04 488.48 427.84 497.28L692 760.32C779.36 688.8 826.88 601.6 826.88 510.56C826.88 412 767.84 315.04 660.64 239.68C650.4 232.48 643.36 221.44 641.28 209.12C639.04 196.8 641.92 184 649.28 173.76C656.48 163.52 667.52 156.48 679.84 154.4L679.84 154.24ZM350.24 869.76C337.92 871.84 325.28 868.96 314.88 861.76C181.92 767.84 108.48 643.52 108.48 510.56C108.48 380.32 181.76 256.16 314.88 162.24C324 155.84 335.04 152.8 346.24 153.76C357.28 154.72 367.68 159.52 375.52 167.36L668.96 459.68C677.92 468.48 682.88 480.48 682.88 493.12C683.04 504.16 678.08 517.6 669.12 526.56C660.32 535.36 648.32 540.48 635.68 540.48C623.2 540.48 609.76 535.52 602.24 526.72L338.08 263.52C250.72 335.84 203.2 422.24 203.2 510.56C203.2 612 262.24 708.96 368.16 784.32C379.84 791.68 386.72 802.56 388.96 815.04C391.04 827.36 388.16 840.16 380.96 850.4C373.76 860.64 362.72 867.52 350.24 869.76Z"/></svg>