<?xml version="1.0" encoding="utf-8" ?><svg xmlns="http://www.w3.org/2000/svg" xmlns:xlink="http://www.w3.org/1999/xlink" width="483" height="726" viewBox="0 0 483 726"><path fill="#107DAC" transform="scale(3.63 3.63)" d="M0 132.042C0.394374 131.524 2.21614 120.072 2.65124 118.479C11.9341 84.4804 33.7328 52.3066 52.2978 22.7551L61.3997 8.30625C63.0038 5.78683 65.081 2.84663 66.4613 0.283284C69.7406 5.86115 74.2099 12.4072 77.7045 18.0197C92.5418 41.8497 107.923 65.0082 120.044 90.399C124.284 99.1182 127.718 108.207 130.302 117.552C131.098 120.413 132.223 130.116 133 131.513L133 141.171L132.969 141.243C132.581 142.16 132.358 143.36 132.23 144.351C129.257 167.341 112.818 186.1 91.3718 194.945C88.0696 196.276 84.6623 197.329 81.1852 198.093C79.37 198.489 72.4339 199.462 71.44 200L61.3177 200C60.0698 199.407 54.8431 198.697 53.1042 198.352C27.7586 193.325 5.02334 171.983 1.12157 146.024C0.88027 144.419 0.591857 141.86 0.0301406 140.458L0 140.384L0 132.042ZM69.3735 158.296C83.2007 156.712 93.1054 144.189 91.4625 130.369C89.8196 116.548 77.2551 106.696 63.4419 108.398C49.711 110.089 39.9308 122.562 41.5639 136.3C43.197 150.038 55.6288 159.871 69.3735 158.296Z"/></svg>