<?xml version="1.0" encoding="utf-8" ?><svg xmlns="http://www.w3.org/2000/svg" xmlns:xlink="http://www.w3.org/1999/xlink" width="640" height="640" viewBox="0 0 640 640"><path fill="#107DAC" transform="scale(0.625 0.625)" d="M409.6 499.2C515.68 499.2 601.6 413.28 601.6 307.2C601.6 201.12 515.68 115.2 409.6 115.2C303.52 115.2 217.6 201.12 217.6 307.2C217.6 413.28 303.52 499.2 409.6 499.2ZM362.08 588.8C204.48 588.8 76.8 716.48 76.8 874.08C76.8 900.32 98.08 921.6 124.32 921.6L526.72 921.6C468.8 853.44 435.2 765.6 435.2 672.64L435.2 622.88C435.2 611.2 436.8 599.68 439.84 588.8L362.08 588.8ZM763.68 884L742.4 894.08L742.4 593.12L896 644.32L896 675.68C896 764.96 844.48 846.08 763.68 884.16L763.68 884ZM726.24 517.6L547.04 577.28C526.08 584.32 512 603.84 512 625.92L512 675.68C512 794.72 580.8 903.04 688.32 953.6L717.92 967.52C725.6 971.04 733.92 972.96 742.24 972.96C750.56 972.96 759.04 971.04 766.56 967.52L796.16 953.6C904 902.88 972.8 794.56 972.8 675.52L972.8 625.76C972.8 603.68 958.72 584.16 937.76 577.12L758.56 517.44C748 513.92 736.64 513.92 726.24 517.44L726.24 517.6Z"/></svg>