<?xml version="1.0" encoding="utf-8" ?><svg xmlns="http://www.w3.org/2000/svg" xmlns:xlink="http://www.w3.org/1999/xlink" width="640" height="640" viewBox="0 0 640 640"><path fill="#107DAC" transform="scale(0.625 0.625)" d="M665.6 102.4C722.08 102.4 768 148.32 768 204.8L768 819.2C768 875.68 722.08 921.6 665.6 921.6L358.4 921.6C301.92 921.6 256 875.68 256 819.2L256 204.8C256 148.32 301.92 102.4 358.4 102.4L665.6 102.4ZM448 768C426.72 768 409.6 785.12 409.6 806.4C409.6 827.68 426.72 844.8 448 844.8L576 844.8C597.28 844.8 614.4 827.68 614.4 806.4C614.4 785.12 597.28 768 576 768L448 768ZM129.28 315.84C144.32 303.52 166.56 304.48 180.64 318.56C195.68 333.6 195.68 357.92 180.64 372.8L131.04 422.4L171.68 463.04L176.32 468.16C186.4 480.48 192 496 192 512C192 530.4 184.64 548 171.68 560.96L131.04 601.6L180.64 651.2L183.36 654.08C195.68 669.12 194.72 691.36 180.64 705.44C166.56 719.52 144.32 720.32 129.28 708.16L126.4 705.6L71.52 650.56C60.16 639.2 53.12 624.32 51.52 608.48L51.2 601.6L51.52 594.72C53.12 578.88 60.16 564 71.52 552.64L112.16 512L71.52 471.36C60.16 460 53.12 445.12 51.52 429.28L51.2 422.4L51.52 415.52C53.12 399.68 60.16 384.8 71.52 373.44L126.4 318.4L129.28 315.84ZM843.2 318.4C857.28 304.32 879.52 303.52 894.56 315.68L897.44 318.4L952.32 373.28C963.68 384.64 970.72 399.52 972.32 415.36L972.64 422.24L972.32 429.12C970.72 444.96 963.68 459.84 952.32 471.2L911.68 511.84L952.32 552.48C963.68 563.84 970.72 578.72 972.32 594.56L972.64 601.44L972.32 608.32C970.72 624.16 963.68 639.04 952.32 650.4L897.44 705.28L894.56 708C879.52 720.32 857.28 719.36 843.2 705.28C829.12 691.2 828.32 668.96 840.48 653.92L843.2 651.04L892.8 601.44L852.16 560.8C839.2 547.84 831.84 530.24 831.84 511.84C831.84 495.84 837.44 480.32 847.52 468L852.16 462.88L892.8 422.24L843.2 372.64C828.16 357.6 828.16 333.28 843.2 318.4Z"/></svg>