<svg xmlns="http://www.w3.org/2000/svg" xmlns:xlink="http://www.w3.org/1999/xlink" viewBox="463.49 71.36 480.62 609.43"><path d="M573.446 71.7631C579.69 71.0832 595.412 71.4754 602.124 71.4848L656.267 71.5221L823.936 71.4394C845.252 71.6084 862.7 77.0642 878.021 92.7179C887.251 102.225 893.728 114.06 896.762 126.959C899.762 140.227 898.561 176.221 898.557 192.047L898.486 304.198C887.936 303.219 879.352 303.093 868.902 303.3L868.863 151.149C868.58 117.182 852.896 99.0465 816.489 101.56C805.328 102.331 797.366 96.4464 794.081 110.545C788.978 132.444 770.97 132.295 752.686 131.504C740.899 131.251 728.069 131.445 716.031 131.419C690.731 131.347 665.37 131.622 640.07 131.452C626.396 132.219 617.562 122.916 614.007 110.508C611.531 101.864 611.331 101.304 602.928 101.364C583.812 101.5 567.055 98.6033 551.942 113.275C536.364 128.4 539.113 148.34 539.116 168.163L539.148 220.155L539.188 405.464C529.12 411.484 519.186 417.725 509.393 424.182L509.348 225.133L509.352 167.617C509.354 156.818 508.726 144.188 510.186 133.598C514.843 99.8124 539.935 76.1378 573.446 71.7631Z"/><path d="M871.357 325.534C892.954 325.157 926.146 326.004 939.686 346.558C943.811 352.819 945.327 362.675 943.053 369.81C931.318 406.642 884.227 434.797 853.13 453.595C853.375 461.801 851.938 468.695 846.915 475.418C842.019 482.097 834.61 486.488 826.401 487.576C816.918 488.751 809.584 486.098 802.21 480.393C782.893 489.596 762.711 497.653 742.615 504.999C683.497 526.61 543.283 568.658 483.309 540.553C474.905 536.614 468.15 530.817 464.998 521.82C461.787 512.656 464.095 503.213 468.268 494.762C491.234 448.259 598.587 396.241 646.643 379.78C640.934 391.775 640.837 395.994 639.055 408.621C598.338 424.985 516.062 464.604 490.953 504.425C489.799 506.219 488.414 511.639 489.71 513.569C499.395 527.989 543.306 525.54 556.155 524.432C636.735 517.481 716.943 492.051 790.326 459.133C790.851 451.189 791.68 444.778 796.348 437.963C801.053 430.956 808.397 426.154 816.702 424.655C826.923 422.894 834.114 426.19 842.147 431.738C866.355 417.419 898.555 396.99 914.755 373.713C917.073 370.381 919.324 364.987 918.175 360.904C917.614 358.91 915.59 356.473 913.786 355.715C879.508 341.32 806.862 356.629 773.69 364.629C784.479 354.453 795.185 343.559 805.722 333.077C827.385 328.951 849.323 326.429 871.357 325.534Z"/><path d="M897.834 453.118C898.832 454.747 898.571 459.237 898.583 461.43L898.541 558.731C898.567 575.271 899.739 612.563 896.539 626.535C893.731 639.039 887.462 650.501 878.448 659.611C858.797 679.296 841.965 680.748 816.433 680.797L643.816 680.742L598.141 680.768C570.555 680.78 550.985 681.007 529.821 659.627C512.925 642.559 509.292 624.831 509.396 601.458L509.467 570.389C519.12 572.085 529.318 572.232 539.125 572.592C539.14 583.953 538.884 595.435 539.124 606.749C539.709 634.327 556.839 650.831 584.25 650.837C641.862 650.848 699.473 650.82 757.08 650.845L808.456 650.886C826.608 650.892 842.447 653.116 856.444 638.923C862.395 632.888 866.45 626.974 867.626 618.378C869.859 602.045 868.975 584.424 868.965 567.873L868.99 470.896C878.394 465.558 888.554 458.892 897.834 453.118Z"/><path d="M690.644 190.73C694.765 190.127 710.047 190.323 714.095 190.536C765.93 193.655 814.495 216.907 849.431 255.331C842.255 262.703 834.963 269.96 827.557 277.1C823.222 274.033 812.242 262.916 806.358 258.301C778.359 236.339 754.655 227.527 719.985 222.778C663.596 218.17 620.432 237.675 581.138 276.972C576.113 273.287 563.336 259.923 558.593 255.121C595.276 216.396 637.624 195.535 690.644 190.73Z"/><path d="M690.897 249.358C695.974 248.826 701.078 248.59 706.183 248.649C747.228 249.063 780.662 267.128 808.803 295.882C801.346 303.159 793.971 310.518 786.679 317.96C766.171 296.457 745.029 284.745 715.606 281.006C713.669 280.735 711.718 280.575 709.762 280.525C671.474 279.4 648.301 292.006 621.334 317.517C614.515 311.466 605.865 302.446 599.257 295.929C622.572 270.071 656.112 252.498 690.897 249.358Z"/><path d="M696.744 369.545C718.925 365.537 740.152 380.28 744.144 402.465C748.136 424.65 733.38 445.869 711.193 449.846C689.029 453.819 667.838 439.079 663.85 416.916C659.862 394.752 674.585 373.549 696.744 369.545Z"/><path d="M695.76 307.588C723.728 304.067 749.495 316.248 768.136 336.508L746.655 357.918C733.174 346.796 731.117 343.451 712.896 339.339C692.18 336.498 676.167 343.144 662.284 358.33C655.149 351.629 646.436 343.39 640.052 336.153C655.692 319.292 672.897 310.38 695.76 307.588Z"/></svg>